<svg xmlns="http://www.w3.org/2000/svg" width="32" height="32" viewBox="0 0 32 32">
  <g transform="rotate(-18 16 16)">
    <path d="M9 14 C9 8 23 8 23 14 C25 14 26 16 25 18 C24 20 8 20 7 18 C6 16 7 14 9 14 Z" fill="#ff6b9d"/>
    <circle cx="13" cy="12" r="1.5" fill="#ffd93d"/>
    <circle cx="17" cy="10.5" r="1.5" fill="#fff8f0"/>
    <circle cx="20.5" cy="12.5" r="1.5" fill="#ffd93d"/>
    <path d="M9 18 L23 18 L21 28 L11 28 Z" fill="#ffdaba"/>
    <path d="M12 20 L13 27 M16 20 L16 28 M20 20 L19 27" stroke="#b76e79" stroke-width="1.5" stroke-linecap="round"/>
  </g>
</svg>
